<svg width="30" height="26" viewBox="0 0 30 26" fill="none" xmlns="http://www.w3.org/2000/svg">
<path d="M4.57906 19.4954C5.11217 20.2581 5.78773 20.8434 6.47405 21.4138C7.48138 22.2506 8.58811 22.8843 9.75879 23.375C9.95759 23.4583 10.0101 23.5152 9.85692 23.7267C9.56441 24.1305 9.29659 24.5578 9.02181 24.9779C8.94837 25.0897 8.86986 25.1623 8.7331 25.1481C5.50915 24.8184 2.65368 23.5786 0.378809 20.8912C0.212293 20.6946 0.13315 20.5201 0.150878 20.2147C0.322459 17.2167 0.739699 14.2658 1.43805 11.3668C2.02118 8.94562 2.79804 6.61207 3.87818 4.4074C4.20868 3.73233 4.75634 3.40049 5.28945 3.03589C6.73237 2.04892 8.2785 1.34465 9.94303 0.988595C10.1494 0.944445 10.3584 0.910264 10.5673 0.884629C10.925 0.84119 11.1599 1.05838 11.2169 1.46571C11.2454 1.6715 11.0795 1.62237 11.0073 1.64231C10.2697 1.84668 9.54922 2.10517 8.84833 2.43772C7.47568 3.0893 6.25309 3.99865 5.15142 5.15724C11.7032 1.36316 18.2448 1.34963 24.7807 5.17932C24.8218 5.01268 24.687 4.97922 24.6186 4.90872C23.0706 3.32856 21.2497 2.32949 19.2413 1.73488C19.2312 1.73203 19.2204 1.73203 19.2103 1.72918C18.7089 1.58534 18.6576 1.38453 18.9925 0.923794C19.0735 0.812706 19.154 0.857569 19.247 0.865402C20.5234 0.97649 21.7232 1.40945 22.8851 1.98412C23.6189 2.34729 24.3128 2.79734 25.0061 3.25095C25.6158 3.65043 26.0197 4.20659 26.3388 4.90017C27.4494 7.31491 28.2294 9.86067 28.7929 12.4962C29.2665 14.7087 29.5799 16.9497 29.754 19.2177C29.785 19.6179 29.766 20.0245 29.842 20.4197C29.8787 20.6113 29.7502 20.6982 29.6616 20.8071C27.997 22.8494 25.9146 24.07 23.5499 24.7372C22.792 24.9508 22.0208 25.0591 21.2459 25.1474C21.0933 25.1645 21.0173 25.0733 20.9381 24.9523C20.6703 24.5414 20.4069 24.1255 20.1208 23.7303C19.9751 23.5288 20.0017 23.464 20.2113 23.3764C21.5947 22.7982 22.8787 22.0156 24.0272 20.9673C24.5173 20.5201 25.0092 20.0715 25.3948 19.4997C25.4208 19.4783 25.4841 19.4734 25.4531 19.4221C25.4284 19.3815 25.3847 19.4128 25.36 19.4527C24.6768 19.9191 24.0127 20.419 23.2953 20.8228C21.5162 21.8233 19.6351 22.42 17.6635 22.6792C16.6588 22.811 15.6514 22.8964 14.6409 22.8701C11.6785 22.7925 8.82997 22.1722 6.2075 20.5379C5.66553 20.2004 5.14636 19.8152 4.61642 19.4527C4.59236 19.4328 4.56893 19.4121 4.54487 19.3915C4.52335 19.3744 4.50245 19.3551 4.47966 19.3409C4.47649 19.3388 4.4613 19.3623 4.4518 19.3744C4.47649 19.3865 4.50119 19.3986 4.52651 19.4107C4.54361 19.4392 4.56134 19.4677 4.57906 19.4954ZM17.0089 14.5193C16.9962 15.0177 17.1127 15.4835 17.2862 15.9314C17.9637 17.6767 19.8358 18.0862 20.9793 16.7432C22.0886 15.4414 21.967 13.1485 20.7286 12.0112C19.9447 11.2913 18.8007 11.2977 18.0187 12.0233C17.3204 12.6721 17.0355 13.5294 17.0089 14.5193ZM10.6148 11.4786C10.1849 11.4565 9.79931 11.5975 9.44602 11.8539C8.02715 12.8829 7.81188 15.388 9.02118 16.7738C9.91454 17.7978 11.2473 17.8056 12.1489 16.7916C12.9935 15.8424 13.2151 14.2814 12.6643 13.0402C12.2432 12.0917 11.5873 11.5149 10.6148 11.4786Z" fill="white"/>
</svg>
