<svg width="30" height="26" viewBox="0 0 30 26" fill="none" xmlns="http://www.w3.org/2000/svg">
<path fill-rule="evenodd" clip-rule="evenodd" d="M26.7229 2.62726C28.0145 2.973 29.0295 3.98798 29.3752 5.27955C30 7.61821 30 12.5005 30 12.5005C30 12.5005 30 17.3828 29.3727 19.7214C29.027 21.013 28.012 22.028 26.7204 22.3737C24.3818 23.001 15 23.001 15 23.001C15 23.001 5.61821 23.001 3.27955 22.3737C1.98798 22.028 0.973 21.013 0.627264 19.7214C0 17.3828 0 12.5005 0 12.5005C0 12.5005 0 7.61821 0.627264 5.27955C0.973 3.98798 1.98798 2.973 3.27955 2.62726C5.61821 2 15 2 15 2C15 2 24.3818 2 26.7229 2.62726ZM19.7959 12.5005L11.9995 17V8.00098L19.7959 12.5005Z" fill="white"/>
</svg>
